<svg xmlns="http://www.w3.org/2000/svg" viewBox="0 0 81 81">
  <g fill="#EE3932" fill-rule="evenodd" transform="translate(0 -1)">
    <path d="M40.4619 6.2988c-19.312 0-35.023 15.71-35.023 35.022 0 19.312 15.711 35.024 35.023 35.024 19.312 0 35.022-15.712 35.022-35.024s-15.71-35.022-35.022-35.022m0 75.35c-22.236 0-40.327-18.091-40.327-40.328 0-22.236 18.091-40.326 40.327-40.326 22.236 0 40.326 18.09 40.326 40.326 0 22.237-18.09 40.328-40.326 40.328"/>
    <polygon points="54.1777 21.1016 46.0367 40.5096 37.8197 21.1016 35.1407 21.1016 46.0477 46.8646 56.8537 21.1016"/>
    <polygon points="59.4561 21.1016 46.0601 52.8616 32.7161 21.4526 16.6901 59.4436 19.3691 59.4436 32.7661 27.6846 46.1081 59.0926 62.1351 21.1016"/>
    <polygon points="25.3623 51.793 22.1323 59.444 24.8073 59.444 27.1023 54.068 38.1913 54.068 40.4863 59.444 43.1623 59.444 39.9313 51.793"/>
    <path d="M35.6494 46.9941h-5.818l2.96-6.962 2.858 6.962zm-9.462 2.275h13.075l-6.487-15.587-6.588 15.587z"/>
  </g>
</svg>